<?xml version="1.0" encoding="UTF-8" standalone="no"?>
<!-- Created with Inkscape (http://www.inkscape.org/) -->

<svg
   width="49.470mm"
   height="49.712mm"
   viewBox="0 0 210 297"
   version="1.1"
   id="svg5"
   sodipodi:docname="automatic-save-0-2023_06_30_07_41_31-5320-1.svg"
   inkscape:version="1.1.1 (3bf5ae0d25, 2021-09-20)"
   xmlns:inkscape="http://www.inkscape.org/namespaces/inkscape"
   xmlns:sodipodi="http://sodipodi.sourceforge.net/DTD/sodipodi-0.dtd"
   xmlns="http://www.w3.org/2000/svg">
  <g>
    <path
       style="color:#000000;fill:#000000;fill-opacity:0;stroke-width:1.56194px;-inkscape-stroke:none"
       d="m 42.308447,358.91882 c -2.42176,7.08491 -4.780102,15.51736 0.781853,26.02386"
       id="path106852" />
    <path
       style="color:#000000;fill:#000000;fill-opacity:0;stroke-width:1.56194px;-inkscape-stroke:none"
       d="m 167.36457,356.1278 c 4.34598,12.61511 4.40016,22.99306 0.18253,31.32636"
       id="path106858" />
    <path
       style="color:#000000;fill:#000000;fill-opacity:0;stroke-width:0.88551;-inkscape-stroke:none"
       d="m 42.308447,358.91882 4.472813,3.70887 -6.299375,3.97583 4.64708,4.33727 -5.163422,4.44054 5.783032,3.76931 -2.658275,5.79204"
       id="path106864" />
    <path
       style="color:#000000;fill:#000000;fill-opacity:0;stroke-width:1.5644;-inkscape-stroke:none"
       d="M 164.6747,361.38221 46.249734,362.66953"
       id="path106870" />
    <path
       style="color:#000000;fill:#000000;fill-opacity:0;stroke-width:1.5644;-inkscape-stroke:none"
       d="M 44.690834,370.94079 165.71364,370.77702"
       id="path106876" />
    <path
       style="color:#000000;fill:#000000;fill-opacity:0;stroke-width:1.5644;-inkscape-stroke:none"
       d="M 163.5085,381.84187 45.493,379.29668"
       id="path106882" />
    <path
       style="color:#000000;fill:#000000;fill-opacity:0;stroke-width:0.88551;-inkscape-stroke:none"
       d="m 167.36457,356.1278 -2.90894,5.36394 5.5765,5.98956 -4.64709,3.14968 5.21506,6.24775 -7.38369,4.85361 4.33069,5.72182"
       id="path106888" />
    <path
       style="fill:none;stroke:#000000;stroke-width:1.56194px;stroke-linecap:butt;stroke-linejoin:miter;stroke-opacity:1"
       d="M -16.935359,148.70653 Z"
       id="path117607" />
    <path
       style="fill:#385630;fill-opacity:1;stroke:none;stroke-width:1.58073px;stroke-linecap:butt;stroke-linejoin:miter;stroke-opacity:1"
       d="m -3.6644284,198.43128 3.13531742,12.95932 44.10350798,44.73057 61.870323,16.51268 61.24324,-16.93072 44.31253,-44.1035 3.34436,-13.16835 c -73.52514,-20.24402 -146.156119,-19.32632 -218.0092784,0 z"
       id="path47577"
       sodipodi:nodetypes="cccccccc" />
    <g
       id="text2733"
       style="font-size:24.9911px;font-family:'Gothic720 BT';-inkscape-font-specification:'Gothic720 BT';word-spacing:0px;fill:#ab322b;fill-opacity:1;stroke-width:1.56194"
       transform="matrix(1.0120293,0,0,1.0120293,-1.1568424,-1.8111687)">
      <path
         d="m -36.775292,126.67075 2.316888,3.03257 q -1.303019,0.79297 -2.017634,1.83923 -0.714615,1.04627 -0.842004,2.35799 -0.212316,2.1862 1.149957,3.43417 1.362273,1.24796 4.265058,1.52987 2.67202,0.2595 4.13612,-0.6772 1.465279,-0.94885 1.671698,-3.07432 0.07903,-0.81375 -0.08721,-1.6268 -0.178387,-0.81423 -0.609121,-1.55489 l -2.161907,-0.20995 -0.379809,3.91086 -3.303588,-0.32083 0.795005,-8.1861 6.886524,0.6688 q 1.570148,1.75856 2.252013,3.70057 0.66972,1.94084 0.460942,4.0906 -0.380989,3.92301 -3.162742,6.05584 -2.781752,2.13282 -7.008402,1.72234 -4.384541,-0.42581 -6.717242,-3.04307 -2.332701,-2.61726 -1.937557,-6.68602 0.22647,-2.33195 1.30217,-4.06649 1.075701,-1.73455 2.990844,-2.89717 z"
         style="-inkscape-font-specification:'Gothic720 BT Bold';fill:#ab322b;fill-opacity:1"
         id="path4593" />
      <path
         d="m -33.711479,113.393 q -0.480537,1.90496 0.756067,3.53832 1.239588,1.62153 3.68882,2.23936 2.425567,0.61186 4.274141,-0.23066 1.848573,-0.84252 2.332095,-2.75931 0.480536,-1.90496 -0.756067,-3.53832 -1.236604,-1.63336 -3.638508,-2.23925 -2.425567,-0.61186 -4.30079,0.23652 -1.875222,0.84838 -2.355758,2.75334 z m -3.650237,-0.89562 q 0.967042,-3.83358 4.18206,-5.65283 3.203187,-1.82223 7.226079,-0.80743 4.011061,1.01181 5.969628,4.12354 1.946735,3.10874 0.973723,6.96599 -0.967043,3.83358 -4.155412,5.64696 -3.197217,1.79857 -7.208278,0.78675 -4.034725,-1.01778 -5.996276,-4.11767 -1.958567,-3.11173 -0.991524,-6.94531 z"
         style="-inkscape-font-specification:'Gothic720 BT Bold';fill:#ab322b;fill-opacity:1"
         id="path4595" />
      <path
         d="m -33.664735,100.45199 1.75041,-4.161875 13.76037,0.174438 -9.942583,-9.251832 1.726755,-4.105637 13.950408,13.571817 -1.655793,3.936909 z"
         style="-inkscape-font-specification:'Gothic720 BT Bold';fill:#ab322b;fill-opacity:1"
         id="path4597" />
      <path
         d="m -24.089806,79.165971 6.014199,-10.293885 2.558892,2.272332 -3.514951,6.016181 3.171401,1.85289 3.237941,-5.54205 2.8447792,1.662061 -3.2379412,5.54205 3.729821,2.179147 3.6442229,-6.237441 3.3783248,1.111689 -6.1804051,10.578362 z"
         style="-inkscape-font-specification:'Gothic720 BT Bold';fill:#ab322b;fill-opacity:1"
         id="path4599" />
      <path
         d="m -9.814334,63.089898 3.130485,2.434791 2.0377334,-2.619975 q 1.1237501,-1.444839 1.2125753,-2.334214 0.079193,-0.896867 -0.797343,-1.578609 -0.7898454,-0.614317 -1.6235652,-0.25792 -0.8358603,0.339273 -1.9671021,1.793745 z m -5.24848,1.282186 4.89955,-6.299499 q 2.2549916,-2.899311 4.4168853,-3.552174 2.1597532,-0.669987 4.2114249,0.925738 1.51226505,1.176192 1.86010462,2.776208 0.34569898,1.582892 -0.52761146,3.361647 l 9.31008014,1.227517 -2.8992751,3.727685 -8.5320109,-1.194344 -1.7305751,2.225052 5.8949441,4.584901 -2.5996085,3.342394 z"
         style="-inkscape-font-specification:'Gothic720 BT Bold';fill:#ab322b;fill-opacity:1"
         id="path4601" />
      <path
         d="M -1.2711332,47.498058 1.8370489,44.551108 14.389053,47.733782 6.8579584,39.79065 9.7978913,37.003222 22.265757,50.153223 19.325825,52.940651 6.278132,49.572145 l 7.858534,8.288486 -2.939933,2.787428 z"
         style="-inkscape-font-specification:'Gothic720 BT Bold';fill:#ab322b;fill-opacity:1"
         id="path4603" />
      <path
         d="m 15.80487,32.030077 5.285545,-3.554909 8.713686,7.992375 -4.157181,-11.056952 5.275421,-3.5481 10.113104,15.036467 -3.068046,2.063482 -8.492284,-12.626582 5.434363,14.683254 -2.85541,1.920468 -11.662483,-10.714983 8.594436,12.778465 -3.068047,2.063482 z"
         style="-inkscape-font-specification:'Gothic720 BT Bold';fill:#ab322b;fill-opacity:1"
         id="path4605" />
      <path
         d="m 37.550243,18.419919 10.766449,-5.120374 0.835157,3.318724 -6.292367,2.992563 1.577515,3.316992 5.796471,-2.756721 1.415047,2.975374 -5.796471,2.756722 1.855284,3.901047 6.523785,-3.102622 2.165875,2.820978 -11.063986,5.261878 z"
         style="-inkscape-font-specification:'Gothic720 BT Bold';fill:#ab322b;fill-opacity:1"
         id="path4607" />
      <path
         d="M 53.405146,11.229133 57.487458,9.9329691 67.394381,18.27174 64.081962,7.8391656 67.943294,6.6131642 73.427065,23.884483 69.565733,25.110485 59.293812,16.388286 62.75025,27.274451 58.888918,28.500452 Z"
         style="-inkscape-font-specification:'Gothic720 BT Bold';fill:#ab322b;fill-opacity:1"
         id="path4609" />
      <path
         d="M 73.520005,5.2338112 90.089368,2.5917019 90.683122,6.3152897 84.561495,7.291429 86.821219,21.462753 82.471008,22.156427 80.211284,7.9851027 74.113759,8.957399 Z"
         style="-inkscape-font-specification:'Gothic720 BT Bold';fill:#ab322b;fill-opacity:1"
         id="path4611" />
      <path
         d="m 110.67809,5.5550899 q -1.9631,-0.077633 -3.30655,1.4690402 -1.33126,1.5471553 -1.43107,4.0711379 -0.0988,2.499597 1.10655,4.134855 1.20541,1.635259 3.1807,1.713374 1.9631,0.07763 3.30654,-1.46904 1.34345,-1.546674 1.44134,-4.021884 0.0988,-2.4995968 -1.11778,-4.1597234 -1.21664,-1.6601267 -3.17973,-1.7377597 z m 0.12412,-3.7564561 q 3.95059,0.1562303 6.39336,2.9273095 2.44325,2.7588859 2.2793,6.9045587 -0.16346,4.133479 -2.80475,6.691291 -2.64082,2.545619 -6.61579,2.388424 -3.95058,-0.15623 -6.38212,-2.902441 -2.41886,-2.757921 -2.2554,-6.891401 0.16443,-4.1578657 2.79353,-6.7161597 2.64129,-2.5578118 6.59187,-2.4015815 z"
         style="-inkscape-font-specification:'Gothic720 BT Bold';fill:#ab322b;fill-opacity:1"
         id="path4613" />
      <path
         d="m 125.55515,3.431636 12.30436,2.1775135 -1.24566,3.1874365 -7.42587,-1.3141634 -0.72726,4.1094634 6.48863,1.148298 -0.60392,3.412536 -6.48863,-1.148298 -1.24186,7.017329 -4.21761,-0.746394 z"
         style="-inkscape-font-specification:'Gothic720 BT Bold';fill:#ab322b;fill-opacity:1"
         id="path4615" />
      <path
         d="m 150.13946,8.8838239 5.92735,2.3325851 -1.63178,11.710836 6.74156,-9.699987 5.91599,2.328117 -6.6358,16.862276 -3.44059,-1.353972 5.57229,-14.15977 -9.00152,12.810266 -3.20213,-1.260132 2.19873,-15.684067 -5.63931,14.330095 -3.44059,-1.353971 z"
         style="-inkscape-font-specification:'Gothic720 BT Bold';fill:#ab322b;fill-opacity:1"
         id="path4617" />
      <path
         d="m 173.69853,19.070254 10.3234,5.963402 -2.2597,2.570058 -6.03343,-3.485263 -1.83724,3.180493 5.55794,3.210593 -1.64802,2.852934 -5.55794,-3.210593 -2.16074,3.740514 6.25532,3.613443 -1.09503,3.383762 -10.60868,-6.128204 z"
         style="-inkscape-font-specification:'Gothic720 BT Bold';fill:#ab322b;fill-opacity:1"
         id="path4619" />
      <path
         d="m 198.33928,39.586564 -3.79909,0.362447 q 0.0162,-1.52525 -0.49384,-2.685095 -0.51001,-1.159844 -1.55589,-1.961707 -1.74312,-1.336439 -3.52275,-0.840318 -1.77962,0.496121 -3.55412,2.810598 -1.63342,2.130482 -1.61279,3.86846 0.0303,1.745404 1.72501,3.044719 0.64883,0.497452 1.42679,0.786375 0.78537,0.279239 1.64177,0.3054 l 1.32159,-1.723753 -3.11825,-2.39074 2.01951,-2.63405 6.52702,5.00422 -4.20978,5.490832 q -2.32291,0.402498 -4.33171,-0.04591 -2.00138,-0.458093 -3.71545,-1.772257 -3.12793,-2.398165 -3.46682,-5.88704 -0.33889,-3.488874 2.24489,-6.858908 2.68031,-3.495927 6.13529,-4.091443 3.45499,-0.595517 6.69913,1.891744 1.85933,1.425534 2.7625,3.25585 0.90318,1.830315 0.87699,4.070576 z"
         style="-inkscape-font-specification:'Gothic720 BT Bold';fill:#ab322b;fill-opacity:1"
         id="path4621" />
      <path
         d="m 204.98534,41.247872 2.96139,3.077517 -5.06471,4.873598 5.10204,5.302122 5.06472,-4.873598 2.97831,3.095103 -13.05747,12.564745 -2.97831,-3.095103 5.51315,-5.305115 -5.10204,-5.302122 -5.51316,5.305114 -2.96138,-3.077517 z"
         style="-inkscape-font-specification:'Gothic720 BT Bold';fill:#ab322b;fill-opacity:1"
         id="path4623" />
      <path
         d="m 221.59062,65.799625 -7.51618,2.39385 2.85698,4.032604 z m 1.29287,-4.191061 3.08977,4.361187 -10.89931,15.961926 -2.53954,-3.584537 2.14644,-2.986258 -4.23256,-5.974228 -3.49381,1.084462 -2.4831,-3.504881 z"
         style="-inkscape-font-specification:'Gothic720 BT Bold';fill:#ab322b;fill-opacity:1"
         id="path4625" />
      <path
         d="m 232.12429,75.644766 2.05303,3.883714 -12.75153,6.74077 3.65552,6.91517 -3.26879,1.727963 -5.70855,-10.798885 z"
         style="-inkscape-font-specification:'Gothic720 BT Bold';fill:#ab322b;fill-opacity:1"
         id="path4627" />
      <path
         d="m 239.05559,98.806483 -7.87865,0.387716 1.72812,4.630101 z m 2.32375,-3.71977 1.86893,5.007367 -14.62593,12.63567 -1.53611,-4.11564 2.84006,-2.33646 -2.56018,-6.859402 -3.65505,0.152879 -1.50198,-4.024185 z"
         style="-inkscape-font-specification:'Gothic720 BT Bold';fill:#ab322b;fill-opacity:1"
         id="path4629" />
      <path
         d="m 245.72443,107.04796 1.01932,4.41095 -6.25072,5.57748 8.10253,2.43595 1.00559,4.3515 -12.35232,-3.80843 -6.76504,1.56333 -0.98361,-4.25639 6.76504,-1.56333 z"
         style="-inkscape-font-specification:'Gothic720 BT Bold';fill:#ab322b;fill-opacity:1"
         id="path4631" />
      <path
         d="m 247.19195,133.79462 -7.71542,-1.64188 0.4854,4.9182 z m 3.19848,-3.00105 0.52495,5.31894 -17.37299,8.47097 -0.43147,-4.37173 3.3435,-1.53166 -0.71911,-7.28621 -3.57242,-0.78778 -0.42187,-4.27458 z"
         style="-inkscape-font-specification:'Gothic720 BT Bold';fill:#ab322b;fill-opacity:1"
         id="path4633" />
    </g>
    <g
       id="g27879"
       transform="matrix(1.0120293,0,0,1.0120293,-1.1568424,-1.8111687)">
      <path
         style="fill:#f5a448;fill-opacity:1;stroke:none;stroke-width:1.56194px;stroke-linecap:butt;stroke-linejoin:miter;stroke-opacity:1"
         d="m 128.6701,287.09691 c 0.82593,9.50117 -22.78841,11.61781 -23.75544,1.46232 -0.87452,-9.18372 22.92737,-10.98805 23.75544,-1.46232 z"
         id="path10711-8-5-9-2-4-8-3-7-3"
         sodipodi:nodetypes="sss" />
      <path
         style="fill:#bf322b;fill-opacity:1;stroke:none;stroke-width:1.56194px;stroke-linecap:butt;stroke-linejoin:miter;stroke-opacity:1"
         d="m -31.392941,152.83727 c -9.500252,0.83648 -7.484143,24.4596 2.684979,23.64848 9.196069,-0.7335 6.839834,-24.48713 -2.684979,-23.64848 z"
         id="path10711"
         sodipodi:nodetypes="sss" />
      <path
         style="fill:#f5a448;fill-opacity:1;stroke:none;stroke-width:1.56194px;stroke-linecap:butt;stroke-linejoin:miter;stroke-opacity:1"
         d="m -28.769805,176.37223 c -9.210669,2.47348 -3.123078,25.38762 6.750703,22.82297 8.928989,-2.31924 2.483776,-25.30284 -6.750703,-22.82297 z"
         id="path10711-8"
         sodipodi:nodetypes="sss" />
      <path
         style="fill:#bf322b;fill-opacity:1;stroke:none;stroke-width:1.56194px;stroke-linecap:butt;stroke-linejoin:miter;stroke-opacity:1"
         d="m -22.845251,199.18282 c -8.641223,4.03532 1.332882,25.54424 10.611312,21.30399 8.3906051,-3.83451 -1.947751,-25.34973 -10.611312,-21.30399 z"
         id="path10711-8-5"
         sodipodi:nodetypes="sss" />
      <path
         style="fill:#f5a448;fill-opacity:1;stroke:none;stroke-width:1.56194px;stroke-linecap:butt;stroke-linejoin:miter;stroke-opacity:1"
         d="m -13.113829,220.70168 c -7.809217,5.47455 5.7483434,24.92472 14.1495014,19.1377 7.597278,-5.23327 -6.320094,-24.62638 -14.1495014,-19.1377 z"
         id="path10711-8-5-9"
         sodipodi:nodetypes="sss" />
      <path
         style="fill:#bf322b;fill-opacity:1;stroke:none;stroke-width:1.56194px;stroke-linecap:butt;stroke-linejoin:miter;stroke-opacity:1"
         d="M 0.12110749,240.89627 C -6.6188245,247.6437 10.110252,264.44413 17.378872,257.28619 23.951983,250.81317 6.8784695,234.13141 0.12110749,240.89627 Z"
         id="path10711-8-5-9-2"
         sodipodi:nodetypes="sss" />
      <path
         style="fill:#f5a448;fill-opacity:1;stroke:none;stroke-width:1.56194px;stroke-linecap:butt;stroke-linejoin:miter;stroke-opacity:1"
         d="m 16.396801,258.26623 c -5.46586,7.8153 13.92643,21.45552 19.84166,13.14414 5.34922,-7.51608 -14.36166,-20.97963 -19.84166,-13.14414 z"
         id="path10711-8-5-9-2-4"
         sodipodi:nodetypes="sss" />
      <path
         style="fill:#bf322b;fill-opacity:1;stroke:none;stroke-width:1.56194px;stroke-linecap:butt;stroke-linejoin:miter;stroke-opacity:1"
         d="m 35.461372,271.88872 c -4.025708,8.64571 17.440568,18.71127 21.822677,9.49898 3.9628,-8.33077 -17.786549,-18.16702 -21.822677,-9.49898 z"
         id="path10711-8-5-9-2-4-8"
         sodipodi:nodetypes="sss" />
      <path
         style="fill:#f5a448;fill-opacity:1;stroke:none;stroke-width:1.56194px;stroke-linecap:butt;stroke-linejoin:miter;stroke-opacity:1"
         d="m 56.907801,282.15006 c -2.46324,9.21341 20.42478,15.39848 23.14061,5.5652 2.45597,-8.89234 -20.67099,-14.80242 -23.14061,-5.5652 z"
         id="path10711-8-5-9-2-4-8-3"
         sodipodi:nodetypes="sss" />
      <path
         style="fill:#bf322b;fill-opacity:1;stroke:none;stroke-width:1.56194px;stroke-linecap:butt;stroke-linejoin:miter;stroke-opacity:1"
         d="m 80.702004,287.09764 c -0.82593,9.50117 22.788406,11.61781 23.755436,1.46232 0.87452,-9.18372 -22.927366,-10.98805 -23.755436,-1.46232 z"
         id="path10711-8-5-9-2-4-8-3-7"
         sodipodi:nodetypes="sss" />
      <rect
         style="fill:#91241f;fill-opacity:1;fill-rule:evenodd;stroke:none;stroke-width:2.34291;stroke-linecap:round;stroke-linejoin:round;stop-color:#000000"
         id="rect11745"
         width="3.1496871"
         height="12.702016"
         x="103.11419"
         y="281.76791" />
      <rect
         style="fill:#91241f;fill-opacity:1;fill-rule:evenodd;stroke:none;stroke-width:2.34291;stroke-linecap:round;stroke-linejoin:round;stop-color:#000000"
         id="rect11745-3"
         width="3.1496871"
         height="12.702016"
         x="127.38561"
         y="262.46082"
         transform="rotate(10)" />
      <rect
         style="fill:#91241f;fill-opacity:1;fill-rule:evenodd;stroke:none;stroke-width:2.34291;stroke-linecap:round;stroke-linejoin:round;stop-color:#000000"
         id="rect11745-3-8"
         width="3.1496871"
         height="12.702016"
         x="148.30524"
         y="238.27361"
         transform="rotate(20)" />
      <rect
         style="fill:#91241f;fill-opacity:1;fill-rule:evenodd;stroke:none;stroke-width:2.34291;stroke-linecap:round;stroke-linejoin:round;stop-color:#000000"
         id="rect11745-3-8-0"
         width="3.1496871"
         height="12.702016"
         x="165.07564"
         y="210.59152"
         transform="rotate(30)" />
      <rect
         style="fill:#91241f;fill-opacity:1;fill-rule:evenodd;stroke:none;stroke-width:2.34291;stroke-linecap:round;stroke-linejoin:round;stop-color:#000000"
         id="rect11745-3-8-0-6"
         width="3.1496871"
         height="12.702016"
         x="176.39989"
         y="180.42004"
         transform="rotate(40)" />
      <rect
         style="fill:#91241f;fill-opacity:1;fill-rule:evenodd;stroke:none;stroke-width:2.34291;stroke-linecap:round;stroke-linejoin:round;stop-color:#000000"
         id="rect11745-3-8-0-6-6"
         width="3.1496871"
         height="12.702016"
         x="182.77066"
         y="147.47717"
         transform="rotate(50)" />
      <rect
         style="fill:#91241f;fill-opacity:1;fill-rule:evenodd;stroke:none;stroke-width:2.34291;stroke-linecap:round;stroke-linejoin:round;stop-color:#000000"
         id="rect11745-3-8-0-6-6-4"
         width="3.1496871"
         height="12.702016"
         x="183.41502"
         y="114.87303"
         transform="rotate(60)" />
      <rect
         style="fill:#91241f;fill-opacity:1;fill-rule:evenodd;stroke:none;stroke-width:2.34291;stroke-linecap:round;stroke-linejoin:round;stop-color:#000000"
         id="rect11745-3-8-0-6-6-4-0"
         width="3.1496871"
         height="12.702016"
         x="177.51074"
         y="82.766441"
         transform="rotate(70)" />
      <rect
         style="fill:#91241f;fill-opacity:1;fill-rule:evenodd;stroke:none;stroke-width:2.34291;stroke-linecap:round;stroke-linejoin:round;stop-color:#000000"
         id="rect11745-3-8-0-6-6-4-0-8"
         width="3.1496871"
         height="12.702016"
         x="166.76331"
         y="52.399117"
         transform="rotate(80)" />
      <rect
         style="fill:#91241f;fill-opacity:1;fill-rule:evenodd;stroke:none;stroke-width:2.34291;stroke-linecap:round;stroke-linejoin:round;stop-color:#000000"
         id="rect11745-3-8-0-6-6-4-0-8-5"
         width="3.1496871"
         height="12.702016"
         x="151.18677"
         y="24.903749"
         transform="rotate(90)" />
      <path
         style="fill:#f5a448;fill-opacity:1;stroke:none;stroke-width:1.56194px;stroke-linecap:butt;stroke-linejoin:miter;stroke-opacity:1"
         d="m 240.76504,152.83654 c 9.50026,0.83648 7.48415,24.4596 -2.68498,23.64848 -9.19606,-0.7335 -6.83983,-24.48713 2.68498,-23.64848 z"
         id="path10711-0"
         sodipodi:nodetypes="sss" />
      <path
         style="fill:#be322b;fill-opacity:1;stroke:none;stroke-width:1.56194px;stroke-linecap:butt;stroke-linejoin:miter;stroke-opacity:1"
         d="m 238.14191,176.3715 c 9.21067,2.47348 3.12308,25.38762 -6.7507,22.82297 -8.92899,-2.31924 -2.48378,-25.30284 6.7507,-22.82297 z"
         id="path10711-8-3"
         sodipodi:nodetypes="sss" />
      <path
         style="fill:#f5a448;fill-opacity:1;stroke:none;stroke-width:1.56194px;stroke-linecap:butt;stroke-linejoin:miter;stroke-opacity:1"
         d="m 232.21735,199.18209 c 8.64123,4.03532 -1.33288,25.54424 -10.61131,21.30399 -8.3906,-3.83451 1.94775,-25.34973 10.61131,-21.30399 z"
         id="path10711-8-5-6"
         sodipodi:nodetypes="sss" />
      <path
         style="fill:#be322b;fill-opacity:1;stroke:none;stroke-width:1.56194px;stroke-linecap:butt;stroke-linejoin:miter;stroke-opacity:1"
         d="m 222.48593,220.70095 c 7.80922,5.47455 -5.74834,24.92472 -14.1495,19.1377 -7.59728,-5.23327 6.32009,-24.62638 14.1495,-19.1377 z"
         id="path10711-8-5-9-26"
         sodipodi:nodetypes="sss" />
      <path
         style="fill:#f5a448;fill-opacity:1;stroke:none;stroke-width:1.56194px;stroke-linecap:butt;stroke-linejoin:miter;stroke-opacity:1"
         d="m 209.251,240.89554 c 6.73993,6.74743 -9.98915,23.54786 -17.25777,16.38992 -6.57311,-6.47302 10.5004,-23.15478 17.25777,-16.38992 z"
         id="path10711-8-5-9-2-6"
         sodipodi:nodetypes="sss" />
      <path
         style="fill:#be322b;fill-opacity:1;stroke:none;stroke-width:1.56194px;stroke-linecap:butt;stroke-linejoin:miter;stroke-opacity:1"
         d="m 192.9753,258.2655 c 5.46586,7.8153 -13.92643,21.45552 -19.84166,13.14414 -5.34922,-7.51608 14.36166,-20.97963 19.84166,-13.14414 z"
         id="path10711-8-5-9-2-4-3"
         sodipodi:nodetypes="sss" />
      <path
         style="fill:#f5a448;fill-opacity:1;stroke:none;stroke-width:1.56194px;stroke-linecap:butt;stroke-linejoin:miter;stroke-opacity:1"
         d="m 173.91073,271.88799 c 4.02571,8.64571 -17.44057,18.71127 -21.82268,9.49898 -3.9628,-8.33077 17.78655,-18.16702 21.82268,-9.49898 z"
         id="path10711-8-5-9-2-4-8-38"
         sodipodi:nodetypes="sss" />
      <path
         style="fill:#be322b;fill-opacity:1;stroke:none;stroke-width:1.56194px;stroke-linecap:butt;stroke-linejoin:miter;stroke-opacity:1"
         d="m 152.4643,282.14933 c 2.46324,9.21341 -20.42478,15.39848 -23.14061,5.5652 -2.45597,-8.89234 20.67099,-14.80242 23.14061,-5.5652 z"
         id="path10711-8-5-9-2-4-8-3-4"
         sodipodi:nodetypes="sss" />
      <rect
         style="fill:#91241f;fill-opacity:1;fill-rule:evenodd;stroke:none;stroke-width:2.34291;stroke-linecap:round;stroke-linejoin:round;stop-color:#000000"
         id="rect11745-3-1"
         width="3.1496871"
         height="12.702016"
         x="-78.805794"
         y="298.81717"
         transform="matrix(-0.98480775,0.17364818,0.17364818,0.98480775,0,0)" />
      <rect
         style="fill:#91241f;fill-opacity:1;fill-rule:evenodd;stroke:none;stroke-width:2.34291;stroke-linecap:round;stroke-linejoin:round;stop-color:#000000"
         id="rect11745-3-8-5"
         width="3.1496871"
         height="12.702016"
         x="-48.440437"
         y="309.88239"
         transform="matrix(-0.93969262,0.34202014,0.34202014,0.93969262,0,0)" />
      <rect
         style="fill:#91241f;fill-opacity:1;fill-rule:evenodd;stroke:none;stroke-width:2.34291;stroke-linecap:round;stroke-linejoin:round;stop-color:#000000"
         id="rect11745-3-8-0-1"
         width="3.1496871"
         height="12.702016"
         x="-16.246304"
         y="315.27695"
         transform="matrix(-0.8660254,0.5,0.5,0.8660254,0,0)" />
      <rect
         style="fill:#91241f;fill-opacity:1;fill-rule:evenodd;stroke:none;stroke-width:2.34291;stroke-linecap:round;stroke-linejoin:round;stop-color:#000000"
         id="rect11745-3-8-0-6-3"
         width="3.1496871"
         height="12.702016"
         x="16.011084"
         y="315.00128"
         transform="matrix(-0.76604444,0.64278761,0.64278761,0.76604444,0,0)" />
      <rect
         style="fill:#91241f;fill-opacity:1;fill-rule:evenodd;stroke:none;stroke-width:2.34291;stroke-linecap:round;stroke-linejoin:round;stop-color:#000000"
         id="rect11745-3-8-0-6-6-2"
         width="3.1496871"
         height="12.702016"
         x="48.188309"
         y="307.86502"
         transform="matrix(-0.64278761,0.76604444,0.76604444,0.64278761,0,0)" />
      <rect
         style="fill:#91241f;fill-opacity:1;fill-rule:evenodd;stroke:none;stroke-width:2.34291;stroke-linecap:round;stroke-linejoin:round;stop-color:#000000"
         id="rect11745-3-8-0-6-6-4-8"
         width="3.1496871"
         height="12.702016"
         x="78.728325"
         y="296.19421"
         transform="matrix(-0.5,0.8660254,0.8660254,0.5,0,0)" />
      <rect
         style="fill:#91241f;fill-opacity:1;fill-rule:evenodd;stroke:none;stroke-width:2.34291;stroke-linecap:round;stroke-linejoin:round;stop-color:#000000"
         id="rect11745-3-8-0-6-6-4-0-9"
         width="3.1496871"
         height="12.702016"
         x="105.90058"
         y="279.51163"
         transform="matrix(-0.34202014,0.93969262,0.93969262,0.34202014,0,0)" />
      <rect
         style="fill:#91241f;fill-opacity:1;fill-rule:evenodd;stroke:none;stroke-width:2.34291;stroke-linecap:round;stroke-linejoin:round;stop-color:#000000"
         id="rect11745-3-8-0-6-6-4-0-8-4"
         width="3.1496871"
         height="12.702016"
         x="130.40549"
         y="258.59027"
         transform="matrix(-0.17364818,0.98480775,0.98480775,0.17364818,0,0)" />
      <rect
         style="fill:#91241f;fill-opacity:1;fill-rule:evenodd;stroke:none;stroke-width:2.34291;stroke-linecap:round;stroke-linejoin:round;stop-color:#000000"
         id="rect11745-3-8-0-6-6-4-0-8-5-1"
         width="3.1496871"
         height="12.702016"
         x="151.18604"
         y="234.12982"
         transform="matrix(0,1,1,0,0,0)" />
    </g>
    <g
       id="g147419"
       transform="matrix(1.0120293,0,0,1.0120293,-317.30285,-1.8111687)">
      <path
         style="fill:none;stroke:#559d3d;stroke-width:1.56194px;stroke-linecap:butt;stroke-linejoin:miter;stroke-opacity:1"
         d="m 295.45283,148.70653 45.85118,-51.427671 c 19.72617,-22.125294 32.71309,-25.000985 54.73228,-9.087623 31.31409,22.630834 47.15012,47.768674 84.05368,57.884364"
         id="path116263"
         sodipodi:nodetypes="cssc" />
      <path
         style="fill:none;stroke:#559d3d;stroke-width:1.56194px;stroke-linecap:butt;stroke-linejoin:miter;stroke-opacity:1"
         d="m 295.45283,148.70653 c 4.32849,-3.70059 6.81582,-7.93473 16.64185,-4.85357 8.30332,-19.53179 19.8472,-18.0647 33.00586,-6.13384 9.96063,-7.17318 17.07986,-3.87806 23.36698,2.48275 10.01127,-2.73018 18.51304,-0.37574 24.82741,9.34679 1.67736,-1.83816 3.50682,-3.42915 6.71801,-2.77483 0.71774,-10.92275 6.47088,-12.33418 14.16623,-10.07701 5.15978,-6.06308 9.47693,-15.12594 19.29192,-4.6165 9.31607,-2.19119 16.80331,0.92148 22.77069,10.84318 8.10397,-1.5135 11.73618,1.73326 13.83797,6.60918 2.19399,-1.94563 4.66047,-3.45528 8.77782,-2.32354 l 1.12913,-1.72733"
         id="path118441"
         sodipodi:nodetypes="cccccccccccc" />
      <path
         style="fill:none;stroke:#387b38;stroke-width:1.56194px;stroke-linecap:butt;stroke-linejoin:miter;stroke-opacity:1"
         d="m 419.78803,107.6057 c 18.48244,-4.55869 33.90813,-19.557271 51.05433,-13.981863 29.07034,9.452773 40.52552,39.829973 67.08474,53.223863"
         id="path117055"
         sodipodi:nodetypes="csc" />
      <path
         style="fill:none;stroke:#385630;stroke-width:1.56194px;stroke-linecap:butt;stroke-linejoin:miter;stroke-opacity:1"
         d="m 389.63364,83.647425 c 9.9692,-3.512345 24.09445,-12.201418 33.45898,-8.881083 10.81498,3.834613 14.88,14.195675 24.29314,21.149568"
         id="path116735"
         sodipodi:nodetypes="csc" />
      <path
         style="fill:#387b38;fill-opacity:1;fill-rule:evenodd;stroke:none;stroke-width:0.206862;stroke-linecap:round;stroke-linejoin:round;stroke-miterlimit:4;stroke-dasharray:none;stroke-opacity:1;stop-color:#000000"
         d="m 462.33179,92.751587 c -8.11465,0.05157 -15.48903,3.946306 -22.71098,7.195712 -5.79733,2.845621 -11.75619,5.397871 -17.88642,7.491401 -1.02176,0.28823 -0.4556,1.46127 0.2429,1.78823 12.58822,11.37973 25.53164,22.83895 40.99349,30.18085 5.24703,2.46454 10.68037,4.62274 16.28655,6.10066 1.63968,-0.42237 2.5993,-2.13303 4.17754,-2.76283 2.93816,-1.64772 6.37909,-0.27282 8.96905,1.45356 1.22834,0.79945 2.06598,-0.9842 3.07098,-1.48543 1.90713,-1.72137 4.77278,-1.93316 7.02306,-0.78339 1.3858,-0.25667 2.40949,-1.53566 3.72252,-2.09643 4.08936,-2.29368 9.17527,-3.48556 13.65361,-1.57686 3.96728,1.44961 6.70266,4.8005 9.29779,7.90931 0.97672,0.70312 2.07895,-0.37961 3.07264,-0.57564 0.94188,-0.15152 0.90914,-1.33605 0.0872,-1.65148 -7.98432,-5.13078 -14.79271,-11.81655 -21.25109,-18.71445 -9.18505,-9.64979 -18.109,-19.99807 -29.84691,-26.649819 -5.80562,-3.198723 -12.10346,-6.155414 -18.90185,-5.823394 z"
         id="path131044" />
      <path
         style="fill:#385630;fill-opacity:1;fill-rule:evenodd;stroke:none;stroke-width:0.103431;stroke-linecap:round;stroke-linejoin:round;stroke-miterlimit:4;stroke-dasharray:none;stroke-opacity:1;stop-color:#000000"
         d="m 418.18354,74.241931 c -5.94769,0.133312 -11.51488,2.542406 -16.92379,4.784928 -3.36534,1.451537 -6.74385,2.884085 -10.10128,4.321653 -0.63567,0.325521 -0.36146,1.189217 0.21763,1.409453 7.30623,4.824502 14.14523,10.342411 20.83125,15.996515 2.42522,2.02922 4.7688,4.18266 7.17285,6.24593 0.79423,0.64264 1.77451,-0.0545 2.61859,-0.21413 8.3992,-2.48613 16.07928,-6.822747 24.06581,-10.299482 0.62985,-0.281686 0.48742,-1.152467 -0.0895,-1.412277 -5.90705,-4.759951 -10.01718,-11.340887 -15.89648,-16.128834 -3.28137,-2.560467 -7.19072,-4.694001 -11.45876,-4.701335 -0.14541,-0.0022 -0.29083,-0.0033 -0.43626,-0.0025 z"
         id="path123595" />
      <path
         id="path121214"
         style="fill:#559d3d;fill-opacity:1;fill-rule:evenodd;stroke:none;stroke-width:0.206862;stroke-linecap:round;stroke-linejoin:round;stroke-miterlimit:4;stroke-dasharray:none;stroke-opacity:1;stop-color:#000000"
         d="m 371.65096,78.389909 c -7.9714,0.0285 -15.07453,4.569044 -20.8513,9.676711 -7.40034,6.990428 -13.98284,14.78348 -20.83606,22.29732 -9.32937,10.49058 -18.73837,20.91708 -27.91054,31.54388 -0.002,0.005 -0.001,0.008 -0.003,0.0122 -0.0545,-0.004 -0.10763,-7e-4 -0.16169,0.009 -0.17008,0.0309 -0.30987,0.14146 -0.41793,0.27151 -0.14011,0.16356 -0.3239,0.31439 -0.36609,0.53691 -0.0634,0.27884 0.091,0.58837 0.35388,0.70166 0.18754,0.0893 0.41069,0.063 0.59183,-0.0305 0.19582,-0.0863 0.42815,-0.13828 0.55827,-0.32337 0.0385,-0.0488 0.0646,-0.10438 0.0854,-0.16169 0.32543,0.0489 0.68435,0.0264 0.9518,-0.11287 2.60363,-0.35344 5.255,-0.0745 7.78836,0.51556 1.37127,-0.66501 1.60147,-2.50256 2.42528,-3.673 2.4751,-4.55398 5.93369,-9.1428 11.16238,-10.57971 3.81558,-0.84755 7.81328,0.0222 11.17764,1.93107 3.1994,1.60831 5.99473,3.9164 8.75542,6.12574 1.13851,0.0108 2.02782,-1.1634 3.09337,-1.56499 4.47849,-2.49733 10.2724,-2.95569 14.74997,-0.14948 2.0988,1.17787 3.89625,2.82595 5.71694,4.34109 1.55257,-0.004 3.13972,-0.69271 4.75294,-0.6803 3.95048,-0.3062 8.13032,0.0305 11.6505,2.08666 3.21833,1.66751 5.78457,4.30422 7.93479,7.17517 1.04458,0.79586 1.85939,-0.84351 2.80965,-1.14095 1.21213,-0.80379 2.75414,-0.6387 4.02688,-1.15316 0.63326,-3.2432 1.22845,-7.05771 4.17026,-9.12149 2.97886,-2.04837 6.73775,-1.22592 10.0428,-0.72605 1.14735,-0.44158 1.63819,-1.892 2.5412,-2.7212 2.304,-2.67245 4.70847,-6.18931 8.59372,-6.42165 3.35444,-0.1183 6.0289,2.30586 8.25815,4.50888 1.34207,0.33648 2.78582,-0.40855 4.19163,-0.27455 3.72246,-0.24874 7.56002,0.45569 10.68953,2.57171 3.29637,2.00748 5.6958,5.09494 7.91952,8.17578 0.84248,1.00546 2.21947,0.09 3.29473,0.34167 2.65482,-0.1033 5.43098,0.42301 7.48023,2.22699 1.44667,1.00487 2.12682,2.7048 3.28862,3.93841 1.2098,0.0975 2.07543,-1.15358 3.24894,-1.39721 0.72718,-0.42463 1.79489,-0.36139 2.51681,-0.73216 0.0372,0.0484 0.0824,0.0902 0.13423,0.12508 0.22317,0.16301 0.52815,0.1163 0.77486,0.14643 0.25216,0.0165 0.53309,0.0842 0.75962,-0.0671 0.28431,-0.16495 0.38454,-0.57036 0.20744,-0.84808 -0.10121,-0.1903 -0.30728,-0.28152 -0.50639,-0.33253 -0.23782,-0.0684 -0.47132,-0.15867 -0.71387,-0.20744 -0.0672,-0.0108 -0.13428,-0.006 -0.20134,0.003 -0.0735,0.0133 -0.14398,0.0414 -0.20744,0.0793 -0.59116,-0.56236 -1.89413,-0.55241 -2.58087,-1.00061 -13.81237,-4.64809 -26.19217,-12.63464 -37.32795,-21.93124 C 422.13371,110.58819 409.0315,97.495648 393.85983,86.995638 387.2589,82.569955 379.835,78.361906 371.65099,78.389709 Z" />
      <path
         d="m 537.9271,146.8477 c -2.67234,-0.74851 -5.23776,-2.10291 -8.468,0.30981 -7.87049,-11.65569 -16.87839,-12.1651 -26.6949,-4.75034 -4.69438,-2.61063 -7.01633,0.38638 -9.65559,2.63334 -6.24756,-4.7226 -10.28769,-3.22025 -13.44891,0.17156"
         style="fill:none;stroke:#387b38;stroke-width:2.43966px;stroke-linecap:butt;stroke-linejoin:miter;stroke-opacity:1"
         id="path144301"
         sodipodi:nodetypes="ccccc" />
    </g>
    <path
       style="fill:#786f69;fill-opacity:1;stroke:#ffffff;stroke-width:1.19488;stroke-linecap:butt;stroke-linejoin:miter;stroke-miterlimit:4;stroke-dasharray:none;stroke-opacity:1"
       d="m 101.63232,125.91111 c -6.906248,5.40003 -9.543525,-0.50688 -13.14218,9.85346 -1.838847,5.42831 -0.251945,11.49767 -1.194468,17.15046 -0.634633,3.80621 -2.512302,7.35556 -2.986154,11.18505 -2.081937,16.82541 0.746543,50.8548 0.746543,50.8548 h 36.729709 l -0.44791,-20.58053 c -0.22252,-10.22459 -2.21437,-17.62107 -1.04515,-26.54592 4.42361,-33.76622 -1.45308,-60.09558 -18.66039,-41.91732 z"
       id="path51198"
       sodipodi:nodetypes="ccssccssc" />
    <path
       style="fill:#786f69;fill-opacity:1;stroke:#ffffff;stroke-width:1.19488;stroke-linecap:butt;stroke-linejoin:miter;stroke-miterlimit:4;stroke-dasharray:none;stroke-opacity:1"
       d="m 136.17217,145.61447 c -9.99723,4.38922 -4.87213,17.02955 -5.06271,26.86322 -0.11407,4.90537 -0.75859,9.78828 -0.89341,14.69312 -0.23655,8.60502 0.1489,25.82431 0.1489,25.82431 l 29.92958,-0.59368 c 0,0 -0.60377,-11.70457 -1.34013,-17.51302 -0.60665,-4.78513 -2.04335,-9.44928 -2.53137,-14.24788 -0.56084,-5.51457 0.88926,-11.24203 -0.4467,-16.62253 C 154.95247,159.89445 150.318,152.59 150.318,152.59 c -2.25049,-4.54525 -9.5552,-8.99101 -14.14583,-6.97553 z"
       id="path52791"
       sodipodi:nodetypes="scsccsssss" />
    <path
       style="fill:#786f69;fill-opacity:1;stroke:#ffffff;stroke-width:1.19488;stroke-linecap:butt;stroke-linejoin:miter;stroke-miterlimit:4;stroke-dasharray:none;stroke-opacity:1"
       d="m 63.123909,136.04726 c -6.641847,0.25778 -7.331737,8.23216 -7.9284,14.61658 0,0 -0.596803,15.8454 -2.202327,23.56548 -1.119649,5.38375 -5.241239,11.5575 -6.019712,17.00296 -1.266737,8.86094 -0.440466,27.14504 -0.440466,27.14504 l 29.658075,-2.08807 c 0,0 -1.664899,-11.42282 -1.761862,-17.17946 -0.132454,-7.86392 0.647416,-15.23509 1.615047,-23.53812 1.20302,-10.32288 0.880931,-31.17207 0.880931,-31.17207 0.24565,-8.69246 -6.314111,-8.64292 -13.801286,-8.35234 z"
       id="path50309"
       sodipodi:nodetypes="ssssccssss" />
    <g
       id="g109953"
       transform="matrix(1.0120293,0,0,1.0120293,-1.1568424,-223.11337)">
      <path
         style="fill:#f5a448;fill-opacity:1;stroke:none;stroke-width:1.56194px;stroke-linecap:butt;stroke-linejoin:miter;stroke-opacity:1"
         d="m 38.554089,446.64581 133.775951,3.21296 c 5.96385,-10.93645 3.6191,-21.23377 -0.43814,-31.39937 l -133.483856,3.06692 c -5.523741,9.26475 -4.019823,17.40508 0.146045,25.11949 z"
         id="path58488-3"
         sodipodi:nodetypes="ccccc" />
      <path
         id="path58488"
         style="fill:#9f5b2f;fill-opacity:1;stroke:none;stroke-width:1.56194px;stroke-linecap:butt;stroke-linejoin:miter;stroke-opacity:1"
         d="m 167.49735,418.56051 -0.2044,0.006 0.0733,0.0397 z m -0.61929,0.0156 -123.847878,2.84322 3.544873,2.94048 117.859425,-1.27823 2.23004,-4.11229 c -0.0125,-0.037 -0.0239,-0.0728 -0.0366,-0.10981 l 0.1159,-0.0397 z m 0.16473,1.55279 -2.04698,3.77367 4.15499,4.46007 c -0.47175,-2.61915 -1.1747,-5.36397 -2.10801,-8.23374 z m -124.241409,2.25138 c -0.61793,1.83903 -1.204614,3.74908 -1.641258,5.75051 l 4.868864,-3.07201 z m 121.672749,2.2636 -118.167533,1.28434 -5.103764,3.2215 3.737066,3.48691 120.598921,-0.16474 3.81638,-2.59001 z m -123.670934,5.34171 c -0.343181,2.14583 -0.472073,4.39565 -0.241002,6.77553 l 3.901801,-3.35572 z m 128.725894,0.85114 -3.48995,2.36427 3.81332,4.56684 c 0.10356,-2.20093 -0.0141,-4.51301 -0.32337,-6.93111 z m -3.94451,3.20015 -120.684341,0.16474 -4.197716,3.60894 4.884117,3.18489 117.84723,2.5412 6.29962,-4.13975 c 0.0109,-0.11652 0.0205,-0.23365 0.0305,-0.35083 z m -124.705117,4.94514 c 0.421693,2.22605 1.173208,4.56442 2.370367,7.02874 l 1.937172,-4.21907 z m 128.725897,1.5589 -5.7505,3.77977 3.38013,4.46617 c 1.18711,-2.54943 1.97939,-5.29475 2.37037,-8.24594 z m -123.799073,2.02259 -1.934122,4.20991 122.960145,2.95304 -3.50217,-4.62786 z"
         sodipodi:nodetypes="cccccccccccccccccccccccccccccccccccccccccccccccccccccccc" />
    </g>
    <g
       id="g47462"
       transform="matrix(1.0120293,0,0,1.0120293,-1.1568424,-317.95717)">
      <rect
         style="fill:#5f5b96;fill-opacity:1;fill-rule:evenodd;stroke:none;stroke-width:2.4492;stroke-linecap:round;stroke-linejoin:round;stop-color:#000000"
         id="rect39586"
         width="63.184952"
         height="6.9527187"
         x="443.59641"
         y="131.37709"
         transform="rotate(75)" />
      <rect
         style="fill:#5f5b96;fill-opacity:1;fill-rule:evenodd;stroke:none;stroke-width:2.4492;stroke-linecap:round;stroke-linejoin:round;stop-color:#000000"
         id="rect39592"
         width="63.184952"
         height="6.9527187"
         x="369.61728"
         y="366.13177"
         transform="rotate(45)" />
      <rect
         style="fill:#5f5b96;fill-opacity:1;fill-rule:evenodd;stroke:none;stroke-width:2.4492;stroke-linecap:round;stroke-linejoin:round;stop-color:#000000"
         id="rect39598"
         width="63.184952"
         height="6.9527187"
         x="190.04892"
         y="533.33215"
         transform="rotate(15)" />
      <circle
         style="fill:#f5a448;fill-opacity:1;fill-rule:evenodd;stroke:none;stroke-width:2.51863;stroke-linecap:round;stroke-linejoin:round;stop-color:#000000"
         id="circle39600-9"
         cx="-452.46188"
         cy="262.42221"
         r="4.4405427"
         transform="rotate(-60)" />
      <rect
         style="fill:#5f5b96;fill-opacity:1;fill-rule:evenodd;stroke:none;stroke-width:2.4492;stroke-linecap:round;stroke-linejoin:round;stop-color:#000000"
         id="rect39604"
         width="63.184952"
         height="6.9527187"
         x="389.27878"
         y="334.09341"
         transform="matrix(-0.25881905,0.96592583,0.96592583,0.25881905,0,0)" />
      <rect
         style="fill:#5f5b96;fill-opacity:1;fill-rule:evenodd;stroke:none;stroke-width:2.4492;stroke-linecap:round;stroke-linejoin:round;stop-color:#000000"
         id="rect39610"
         width="63.184952"
         height="6.9527187"
         x="221.11546"
         y="514.63361"
         transform="matrix(-0.70710678,0.70710678,0.70710678,0.70710678,0,0)" />
      <rect
         style="fill:#5f5b96;fill-opacity:1;fill-rule:evenodd;stroke:none;stroke-width:2.4492;stroke-linecap:round;stroke-linejoin:round;stop-color:#000000"
         id="rect39616"
         width="63.184952"
         height="6.9527187"
         x="-12.808399"
         y="587.68762"
         transform="matrix(-0.96592582,0.25881905,0.25881905,0.96592582,0,0)" />
      <circle
         style="fill:#f5a448;fill-opacity:1;fill-rule:evenodd;stroke:none;stroke-width:2.51863;stroke-linecap:round;stroke-linejoin:round;stop-color:#000000"
         id="circle39600-9-8"
         cx="-409.23404"
         cy="218.56285"
         r="4.4405427"
         transform="rotate(-60)" />
      <circle
         style="fill:#f5a448;fill-opacity:1;fill-rule:evenodd;stroke:none;stroke-width:2.51863;stroke-linecap:round;stroke-linejoin:round;stop-color:#000000"
         id="circle39600-9-3"
         cx="-468.88025"
         cy="321.46613"
         r="4.4405427"
         transform="rotate(-60)" />
      <circle
         style="fill:#f5a448;fill-opacity:1;fill-rule:evenodd;stroke:none;stroke-width:2.51863;stroke-linecap:round;stroke-linejoin:round;stop-color:#000000"
         id="circle39600-9-9"
         cx="-453.19412"
         cy="382.22528"
         r="4.4405427"
         transform="rotate(-60)" />
      <circle
         style="fill:#f5a448;fill-opacity:1;fill-rule:evenodd;stroke:none;stroke-width:2.51863;stroke-linecap:round;stroke-linejoin:round;stop-color:#000000"
         id="circle39600-9-0"
         cx="-408.99713"
         cy="426.3551"
         r="4.4405427"
         transform="rotate(-60)" />
      <circle
         style="fill:#f5a448;fill-opacity:1;fill-rule:evenodd;stroke:none;stroke-width:2.51863;stroke-linecap:round;stroke-linejoin:round;stop-color:#000000"
         id="circle39600-9-37"
         cx="-347.96991"
         cy="442.38657"
         r="4.4405427"
         transform="rotate(-60)" />
      <circle
         style="fill:#f5a448;fill-opacity:1;fill-rule:evenodd;stroke:none;stroke-width:2.51863;stroke-linecap:round;stroke-linejoin:round;stop-color:#000000"
         id="circle39600-9-85"
         cx="-289.29303"
         cy="426.89084"
         r="4.4405427"
         transform="rotate(-60)" />
    </g>
  </g>
</svg>
